<svg xmlns="http://www.w3.org/2000/svg" xmlns:xlink="http://www.w3.org/1999/xlink" fill="none" version="1.1" width="40.5" height="40" viewBox="0 0 40.5 40"><defs><clipPath id="master_svg0_164_27655"><rect x="1.0546875" y="2" width="38.390625" height="36" rx="0"/></clipPath></defs><g><rect x="0" y="0" width="40.5" height="40" rx="0" fill="#000000" fill-opacity="0" style="mix-blend-mode:passthrough"/><g clip-path="url(#master_svg0_164_27655)"><g transform="matrix(1,0,0,-1,0,77.546875)"><g><path d="M22.6405875,48.9687375Q25.6640875,49.4609375,27.4218875,51.9922375L38.7421875,69.5703375Q39.4452875,70.6250375,39.3046875,71.8203375Q39.0937875,73.0156375,38.2499875,73.85933750000001Q37.2655875,74.7031375,36.0702875,74.7734375Q34.9452875,74.8437375,33.8905875,74.0703375L17.2265875,61.625037500000005Q14.6249875,59.5859375,14.5546875,56.2812375L22.6405875,48.9687375ZM21.3046875,47.1406275L13.1484875,54.5234375L21.3046875,47.1406275L13.1484875,54.5234375Q9.9140675,54.3125375,7.7343775,52.1328375Q5.6249975,49.8828375,5.5546875,46.6484375Q5.5546875,46.2265575,5.6249975,45.8046875Q5.6953075,44.8906275,5.1328075,44.1171875Q4.5703075,43.3437475,3.6562475,43.2734375L3.3046875,43.2734375Q2.3203075,43.2734375,1.6874995,42.6406275Q1.0546875,42.0078175,1.0546875,41.0234375Q1.0546875,40.0390575,1.6874995,39.4062495Q2.3203075,38.7734375,3.3046875,38.7734375L13.4296875,38.7734375Q16.8046875,38.84375,18.9843875,41.0937475Q21.2343875,43.2734375,21.3046875,46.6484375Q21.3046875,46.7890575,21.3046875,46.9296875Q21.3046875,47.0703175,21.3046875,47.1406275Z" fill="#FFFFFF" fill-opacity="1" style="mix-blend-mode:passthrough"/></g></g></g></g></svg>